<svg xmlns="http://www.w3.org/2000/svg" xmlns:xlink="http://www.w3.org/1999/xlink" id="레이어_1" x="0" y="0" version="1.1" viewBox="0 0 227.2 227.1" style="enable-background:new 0 0 227.2 227.1" xml:space="preserve"><style type="text/css">.st0{fill:url(#SVGID_1_)}.st1{fill:url(#SVGID_2_)}.st2{fill:url(#SVGID_3_)}.st3{fill:url(#SVGID_4_)}</style><g id="Layer_2"><g id="레이어_1_1_"><linearGradient id="SVGID_1_" x1="70.649" x2="197.374" y1="135.491" y2="262.206" gradientTransform="matrix(1 0 0 -1 0 230)" gradientUnits="userSpaceOnUse"><stop offset="0" style="stop-color:#ff2f00"/><stop offset=".13" style="stop-color:#ff3f00"/><stop offset=".38" style="stop-color:#ff6700"/><stop offset=".59" style="stop-color:#ff8c00"/></linearGradient><path d="M186.4,26.3C167.1,10.1,142.8,0.8,117.6,0L59.7,153L186.4,26.3z" class="st0"/><linearGradient id="SVGID_2_" x1="177.65" x2="177.65" y1="52.03" y2="197.58" gradientTransform="matrix(1 0 0 -1 0 230)" gradientUnits="userSpaceOnUse"><stop offset=".2" style="stop-color:#f00048"/><stop offset=".79" style="stop-color:#ff8c00"/></linearGradient><path d="M200.9,40.8l-72.8,72.8l72.8,72.8C236,144.2,236,82.9,200.9,40.8z" class="st1"/><linearGradient id="SVGID_3_" x1="-.524" x2="115.233" y1="70.697" y2="186.445" gradientTransform="matrix(1 0 0 -1 0 230)" gradientUnits="userSpaceOnUse"><stop offset=".09" style="stop-color:#850000"/><stop offset=".25" style="stop-color:#a90e00"/><stop offset=".45" style="stop-color:#ce1c00"/><stop offset=".64" style="stop-color:#e92700"/><stop offset=".8" style="stop-color:#f92d00"/><stop offset=".93" style="stop-color:#ff2f00"/></linearGradient><path d="M89.2,17.5L0.2,106.4c-1.8,28.6,7.2,56.8,25.3,79L89.2,17.5z" class="st2"/><linearGradient id="SVGID_4_" x1="52.791" x2="161.953" y1="8.51" y2="71.536" gradientTransform="matrix(1 0 0 -1 0 230)" gradientUnits="userSpaceOnUse"><stop offset=".07" style="stop-color:#850000"/><stop offset=".88" style="stop-color:#d30168"/></linearGradient><path d="M113.6,128l-72.8,72.8c42.2,35.1,103.4,35.1,145.6,0L113.6,128z" class="st3"/></g></g></svg>