<svg xmlns="http://www.w3.org/2000/svg" xmlns:xlink="http://www.w3.org/1999/xlink" width="1200" height="1200" version="1.1" viewBox="0 0 1200 1200" xml:space="preserve"><desc>Created with Fabric.js 5.2.4</desc><g id="5c580d79-cf9c-484d-a154-e66e7198a54b" transform="matrix(1 0 0 1 600 600)"><rect style="stroke:none;stroke-width:1;stroke-dasharray:none;stroke-linecap:butt;stroke-dashoffset:0;stroke-linejoin:miter;stroke-miterlimit:4;fill:#fff;fill-rule:nonzero;opacity:1;visibility:hidden" width="1200" height="1200" x="-600" y="-600" rx="0" ry="0" vector-effect="non-scaling-stroke"/></g><g><path style="stroke:#000;stroke-width:0;stroke-dasharray:none;stroke-linecap:butt;stroke-dashoffset:0;stroke-linejoin:miter;stroke-miterlimit:4;fill:#171717;fill-rule:nonzero;opacity:1" stroke-linecap="round" d="M 320.05 77.88 C 326.48 77.88 331.98 80.06 336.33000000000004 84.41 C 340.69000000000005 88.77 342.86 94.25999999999999 342.86 100.69 L 342.86 222.44 C 342.86 228.56 340.68 233.85 336.33000000000004 238.41 C 331.97 242.97 326.48 245.26 320.05000000000007 245.26 L 8.09 245.26 L 8.09 254.38 C 8.09 259.36 11.31 265.06 17.84 271.49 L 67.52 321.17 C 78.92999999999999 332.58000000000004 84.63 346.16 84.63 361.72 C 84.63 382.88000000000005 67.52 399.99 46.35999999999999 399.99 L 39.92999999999999 399.99 C 17.939999999999994 399.99 -7.105427357601002e-15 382.15000000000003 -7.105427357601002e-15 360.06 L -7.105427357601002e-15 197.65 C -7.105427357601002e-15 176.49 17.109999999999992 159.38 38.269999999999996 159.38 L 142.29 159.38 C 158.26 159.38 172.16 165.29 183.98 177.10999999999999 L 234.79999999999998 228.56 C 241.23 234.99 247.04 238.31 251.90999999999997 238.31 L 258.23999999999995 238.31 L 258.85999999999996 85.75999999999999 L 39.93 85.75999999999999 C 17.94 85.77 0 67.93 0 45.84 L 0 39.93000000000001 C 0 17.94 17.84 0 39.93 0 L 141.77 0 C 159.3 0 173.4 5.7 184.08 17.11 L 234.38 67.93 C 240.81 74.36000000000001 246.72 77.68 252.10999999999999 77.68 L 320.14 77.68 L 320.03999999999996 77.89 Z" transform="matrix(1.11 0 0 1.11 599.81 599.77) translate(-171.43, -200)" vector-effect="non-scaling-stroke"/></g><g id="35051cac-c64c-4f9d-8d9b-cbd05356fb21" transform="matrix(16.85 0 0 16.85 600 600)"><circle style="stroke:#fff;stroke-width:0;stroke-dasharray:none;stroke-linecap:butt;stroke-dashoffset:0;stroke-linejoin:miter;stroke-miterlimit:4;fill:#fff;fill-rule:nonzero;opacity:1" cx="0" cy="0" r="35" vector-effect="non-scaling-stroke"/></g><g><path style="stroke:#000;stroke-width:0;stroke-dasharray:none;stroke-linecap:butt;stroke-dashoffset:0;stroke-linejoin:miter;stroke-miterlimit:4;fill:#171717;fill-rule:nonzero;opacity:1" stroke-linecap="round" d="M 320.05 77.88 C 326.48 77.88 331.98 80.06 336.33000000000004 84.41 C 340.69000000000005 88.77 342.86 94.25999999999999 342.86 100.69 L 342.86 222.44 C 342.86 228.56 340.68 233.85 336.33000000000004 238.41 C 331.97 242.97 326.48 245.26 320.05000000000007 245.26 L 8.09 245.26 L 8.09 254.38 C 8.09 259.36 11.31 265.06 17.84 271.49 L 67.52 321.17 C 78.92999999999999 332.58000000000004 84.63 346.16 84.63 361.72 C 84.63 382.88000000000005 67.52 399.99 46.35999999999999 399.99 L 39.92999999999999 399.99 C 17.939999999999994 399.99 -7.105427357601002e-15 382.15000000000003 -7.105427357601002e-15 360.06 L -7.105427357601002e-15 197.65 C -7.105427357601002e-15 176.49 17.109999999999992 159.38 38.269999999999996 159.38 L 142.29 159.38 C 158.26 159.38 172.16 165.29 183.98 177.10999999999999 L 234.79999999999998 228.56 C 241.23 234.99 247.04 238.31 251.90999999999997 238.31 L 258.23999999999995 238.31 L 258.85999999999996 85.75999999999999 L 39.93 85.75999999999999 C 17.94 85.77 0 67.93 0 45.84 L 0 39.93000000000001 C 0 17.94 17.84 0 39.93 0 L 141.77 0 C 159.3 0 173.4 5.7 184.08 17.11 L 234.38 67.93 C 240.81 74.36000000000001 246.72 77.68 252.10999999999999 77.68 L 320.14 77.68 L 320.03999999999996 77.89 Z" transform="matrix(1.94 0 0 1.94 667.81 599.98) translate(-171.43, -200)" vector-effect="non-scaling-stroke"/></g></svg>