<svg xmlns="http://www.w3.org/2000/svg" width="443" height="443" fill="none" viewBox="0 0 443 443"><path fill="#fff" d="M442.649 221.325C442.649 343.559 343.559 442.649 221.325 442.649C99.0904 442.649 0 343.559 0 221.325C0 99.0904 99.0904 0 221.325 0C343.559 0 442.649 99.0904 442.649 221.325Z"/><path fill="#000" fill-rule="evenodd" d="M221.325 426.649C334.722 426.649 426.649 334.722 426.649 221.325C426.649 107.927 334.722 16 221.325 16C107.927 16 16 107.927 16 221.325C16 334.722 107.927 426.649 221.325 426.649ZM221.325 442.649C343.559 442.649 442.649 343.559 442.649 221.325C442.649 99.0904 343.559 0 221.325 0C99.0904 0 0 99.0904 0 221.325C0 343.559 99.0904 442.649 221.325 442.649Z" clip-rule="evenodd"/><rect width="129.35" height="129.35" x="120.847" y="121.312" fill="#000" stroke="#000" stroke-width="12"/><rect width="141.35" height="141.35" x="186.451" y="185.987" fill="#000"/><rect width="57.969" height="57.969" x="192.226" y="191.987" fill="#fff" stroke="#000" stroke-width="12"/></svg>